<svg width="92" height="26" xmlns="http://www.w3.org/2000/svg"><g fill="none" fill-rule="evenodd"><path d="M25.35 7.908a2.962 2.962 0 0 0-2.899 2.403l-.005-.001-2.898 10.914-.455 1.718-.76 2.862h3.709a2.96 2.96 0 0 0 2.818-2.087c.01-.03.017-.062.025-.093l2.956-11.134.458-1.724.758-2.858H25.35zm-.069-2.023c1.009.904 2.614.868 3.579-.078a2.274 2.274 0 0 0-.081-3.357c-1.01-.904-2.615-.868-3.579.079a2.274 2.274 0 0 0 .081 3.356m35.427 2.023H57a2.963 2.963 0 0 0-2.899 2.403l-.005-.001L51.2 21.224l-.456 1.718-.76 2.862h3.709a2.96 2.96 0 0 0 2.819-2.087c.01-.03.016-.062.024-.093l2.956-11.134.458-1.724.759-2.858zm-3.777-2.023c1.009.904 2.615.868 3.58-.078a2.274 2.274 0 0 0-.082-3.357c-1.009-.904-2.614-.868-3.579.079a2.273 2.273 0 0 0 .081 3.356m27.723 4.426l-.005-.001-2.897 10.914-.456 1.718-.76 2.862h3.709a2.96 2.96 0 0 0 2.818-2.087c.01-.03.017-.062.025-.094l2.956-11.133.458-1.724.758-2.858h-3.708a2.963 2.963 0 0 0-2.898 2.403m2.83-4.426c1.009.903 2.614.868 3.579-.078a2.274 2.274 0 0 0-.081-3.357c-1.009-.904-2.615-.868-3.579.079a2.274 2.274 0 0 0 .081 3.356M44.888 7.87h-11.64l-3.536 13.316-.456 1.718-.76 2.861h3.71c.093 0 .185-.005.277-.014l.086-.01a2.707 2.707 0 0 0 .457-.095l.087-.025c.069-.023.136-.048.202-.075l.048-.018c.08-.035.158-.073.234-.114.024-.013.047-.028.071-.042.052-.03.104-.06.154-.094.028-.018.055-.038.082-.057a2.816 2.816 0 0 0 .34-.283l.062-.059c.06-.06.116-.123.17-.187.018-.022.034-.046.052-.069.036-.046.07-.092.104-.14l.06-.091a3.485 3.485 0 0 0 .133-.232c.025-.048.048-.097.07-.146.014-.031.03-.063.042-.095.032-.078.062-.158.087-.24.01-.03.016-.063.025-.094l2.98-11.241h3.55a1.484 1.484 0 0 1 1.458 1.72l-.083.314-.064.239-1.758 6.64-.417 1.572-.78 2.936h3.732c.035 0 .068-.003.102-.005.045-.002.091-.003.136-.007A2.964 2.964 0 0 0 46.59 23.2l2.524-9.504.058-.22a4.51 4.51 0 0 0 .149-1.132c0-2.471-1.985-4.474-4.433-4.474m30.419 12.929l-4.097.008 6.432-7.89 4.081-5.006H70.145l-4.846.007h-.082a2.533 2.533 0 0 0-2.23 1.598 3.26 3.26 0 0 0-.262.581l-.71 2.82h8.524l-10.797 12.89h16.172l.006-.015h.262a2.54 2.54 0 0 0 2.335-1.897l.819-3.102-2.518.004-1.51.002z" fill="#06A7E1"/><path d="M2.2 17.28L0 25.744h3.626c1.855 0 3.08-.567 3.705-2.929l1.502-5.533.111-.427H2.31l-.11.427z" fill="#244289"/><path d="M8.207 10.574c-.49 0-1.195.11-1.682.309a5.85 5.85 0 0 0-1.781 1.18 7.02 7.02 0 0 0-.526.553 7.766 7.766 0 0 0-.896 1.293 7.556 7.556 0 0 0-.7 1.748l-.276 1.06-.036.137h6.634l1.521-5.853.111-.427h-2.37z" fill="#006AA6"/><path d="M23.603.247h-13.44c-.11 0-.218.006-.324.015-2.008.145-3.651 1.615-4.074 3.55l-.002.005-3.142 11.84c.16-.614.4-1.203.7-1.748a7.766 7.766 0 0 1 1.067-1.485c.115-.126.234-.246.356-.361a5.859 5.859 0 0 1 1.78-1.18c.488-.2 1.192-.309 1.683-.309h2.369l1.05-4.036 7.081.001v-.003c1.91-.02 3.519-1.308 4.039-3.071l.008-.001.85-3.217z" fill="#06A7E1"/><path d="M18.216 10.568l-7.64.006-.11.427-1.522 5.859h4.376c1.91-.02 3.519-1.311 4.039-3.074l.855-3.212.002-.006z" fill="#244289"/></g></svg>