<svg width="146" height="56" viewBox="0 0 146 56" fill="none" xmlns="http://www.w3.org/2000/svg">
<g clip-path="url(#clip0)">
<path d="M76.3092 24.7206H77.615C77.7386 24.7208 77.861 24.6967 77.9752 24.6496C78.0894 24.6026 78.1932 24.5335 78.2807 24.4464C78.3681 24.3592 78.4375 24.2557 78.4848 24.1418C78.5322 24.0279 78.5565 23.9057 78.5565 23.7824V14.1319C78.5561 13.883 78.4568 13.6443 78.2802 13.4684C78.1037 13.2925 77.8645 13.1937 77.615 13.1937H76.3092C76.06 13.1941 75.8212 13.2931 75.645 13.469C75.4688 13.6448 75.3696 13.8832 75.3692 14.1319V23.7824C75.3692 24.0312 75.4682 24.2699 75.6445 24.4458C75.8208 24.6218 76.0599 24.7206 76.3092 24.7206" fill="#EE0033"/>
<path d="M67.2232 24.8511C68.0134 24.8511 68.9402 24.8086 69.4264 23.8249L74.93 13.1893H72.9177C72.5272 13.1921 72.1455 13.3064 71.8178 13.5186C71.4902 13.7308 71.2302 14.0321 71.0685 14.387L67.6006 21.7447C67.5184 21.9177 67.3554 22.2006 67.2188 22.2006C67.0822 22.2006 66.925 21.9177 66.8383 21.7447L63.3528 14.3914C63.1903 14.0372 62.9301 13.7364 62.6026 13.5244C62.2751 13.3123 61.894 13.1976 61.5036 13.1937H59.4869L64.9906 23.8293C65.5355 24.8731 66.6518 24.8555 67.2232 24.8555" fill="#EE0033"/>
<path d="M136.89 24.7206C137.14 24.7206 137.379 24.6218 137.555 24.4458C137.731 24.2699 137.83 24.0313 137.83 23.7824V22.7562H137.04C136.469 22.7562 135.278 22.7343 134.562 22.2564C133.636 21.6465 133.718 20.5588 133.718 19.7759V11.4199C133.718 11.1707 133.619 10.9317 133.442 10.7555C133.265 10.5792 133.026 10.4802 132.776 10.4802H131.472C131.222 10.4802 130.983 10.5792 130.806 10.7555C130.63 10.9317 130.53 11.1707 130.53 11.4199V20.9487C130.53 22.4059 131.049 23.2532 131.974 23.8631C132.873 24.4494 133.909 24.7104 135.842 24.7104L136.89 24.7206Z" fill="#EE0033"/>
<path d="M96.9769 20.959C96.9769 22.4161 97.4939 23.2635 98.4207 23.8733C99.3197 24.4597 100.355 24.7206 102.288 24.7206H103.337C103.586 24.7206 103.825 24.6218 104.002 24.4458C104.178 24.2699 104.277 24.0312 104.277 23.7824V22.7562H103.487C102.914 22.7562 101.724 22.7342 101.007 22.2563C100.082 21.6465 100.163 20.5587 100.163 19.7759V15.1479H106.811V20.956C106.811 22.4132 107.328 23.2605 108.254 23.8704C109.152 24.4568 110.187 24.7177 112.122 24.7177H113.169C113.293 24.7179 113.415 24.6938 113.529 24.6467C113.643 24.5996 113.747 24.5305 113.834 24.4433C113.922 24.3562 113.991 24.2527 114.038 24.1387C114.085 24.0248 114.109 23.9027 114.109 23.7795V22.7533H113.32C112.749 22.7533 111.55 22.7313 110.841 22.2534C109.916 21.6436 109.998 20.5558 109.998 19.773V15.1479H113.082C113.332 15.1479 113.571 15.049 113.747 14.8731C113.923 14.6971 114.022 14.4585 114.022 14.2096V13.1835H109.992V11.4272C109.992 11.1783 109.893 10.9395 109.717 10.7633C109.541 10.5871 109.301 10.4879 109.052 10.4875H107.746C107.623 10.4875 107.5 10.5119 107.386 10.5591C107.272 10.6063 107.168 10.6756 107.081 10.7629C106.994 10.8501 106.924 10.9537 106.877 11.0677C106.83 11.1817 106.806 11.3039 106.806 11.4272V13.1937H100.157V11.4272C100.157 11.3039 100.133 11.1817 100.086 11.0677C100.039 10.9537 99.9694 10.8501 99.8821 10.7629C99.7948 10.6756 99.6911 10.6063 99.5769 10.5591C99.4628 10.5119 99.3404 10.4875 99.2168 10.4875H97.9111C97.6616 10.4879 97.4225 10.5871 97.2463 10.7633C97.07 10.9395 96.971 11.1783 96.971 11.4272V13.1937H94.9822V14.2199C94.9822 14.4687 95.0813 14.7074 95.2576 14.8833C95.4339 15.0593 95.673 15.1581 95.9223 15.1581H96.9769V20.959Z" fill="#EE0033"/>
<path d="M93.5986 19.3699C94.1964 18.892 94.2787 18.2176 94.2787 17.6312C94.2787 16.1741 93.9247 14.7374 92.237 13.8901C90.9019 13.2157 89.1525 13.1571 87.4693 13.1571C86.1077 13.1571 83.6504 13.1571 82.0758 14.2449C80.5012 15.3326 80.3543 16.9071 80.3543 19.0664C80.3543 20.5881 80.4366 22.1757 81.3825 23.2635C82.5811 24.6122 84.3201 24.7207 85.7889 24.7207H92.8642C92.9877 24.7209 93.11 24.6967 93.2242 24.6496C93.3383 24.6026 93.442 24.5334 93.5294 24.4463C93.6167 24.3591 93.6859 24.2556 93.7331 24.1417C93.7803 24.0278 93.8045 23.9057 93.8043 23.7824V22.7563H86.754C85.5789 22.7563 84.2482 22.6258 83.8398 21.3856C83.7128 20.8659 83.6487 20.3329 83.6489 19.7979H92.0387C92.6101 19.7979 93.155 19.7114 93.5913 19.3581L93.5986 19.3699ZM90.2688 17.8482H85.7361C84.5845 17.8482 83.6504 18.3745 83.6504 19.021V17.8482C83.6768 17.0874 83.6503 16.4555 84.304 15.8691C85.175 15.0863 86.4837 15.1083 87.3268 15.1083C88.2257 15.1083 89.2612 15.1523 90.0514 15.6302C90.3245 15.7877 90.5528 16.0121 90.7147 16.2822C90.8767 16.5523 90.9669 16.8592 90.9768 17.1739C90.9768 17.4788 90.896 17.8482 90.2688 17.8482" fill="#EE0033"/>
<path d="M120.261 24.7207H127.328C127.452 24.7209 127.574 24.6967 127.688 24.6497C127.803 24.6026 127.906 24.5335 127.994 24.4463C128.081 24.3592 128.15 24.2557 128.197 24.1417C128.244 24.0278 128.269 23.9057 128.268 23.7825V22.7563H121.212C120.037 22.7563 118.707 22.6258 118.298 21.3856C118.172 20.8658 118.108 20.3328 118.107 19.798H126.5C127.071 19.798 127.616 19.7115 128.053 19.3582C128.652 18.8803 128.734 18.2059 128.734 17.6195C128.734 16.1624 128.38 14.7257 126.691 13.8784C125.356 13.204 123.606 13.1454 121.923 13.1454C120.562 13.1454 118.104 13.1454 116.53 14.2331C114.955 15.3209 114.813 16.9071 114.813 19.0664C114.813 20.5881 114.895 22.1758 115.848 23.2635C117.047 24.6122 118.786 24.7207 120.255 24.7207H120.261ZM118.109 17.8482C118.137 17.0874 118.109 16.4555 118.762 15.8692C119.635 15.0863 120.942 15.1083 121.787 15.1083C122.686 15.1083 123.72 15.1523 124.51 15.6302C124.783 15.7875 125.012 16.0118 125.174 16.282C125.336 16.5521 125.427 16.8591 125.437 17.1739C125.437 17.4788 125.354 17.8482 124.727 17.8482H120.194C119.043 17.8482 118.109 18.3745 118.109 19.021V17.8482Z" fill="#EE0033"/>
<path d="M76.9629 12.106H77.615C77.8647 12.106 78.1042 12.007 78.2808 11.8308C78.4573 11.6546 78.5565 11.4155 78.5565 11.1663V10.9068C78.5565 10.7835 78.5322 10.6614 78.4848 10.5475C78.4375 10.4335 78.3681 10.33 78.2807 10.2429C78.1932 10.1558 78.0894 10.0867 77.9752 10.0396C77.861 9.99256 77.7386 9.96844 77.615 9.96863H76.3107C76.1871 9.96844 76.0647 9.99256 75.9505 10.0396C75.8363 10.0867 75.7325 10.1558 75.645 10.2429C75.5576 10.33 75.4882 10.4335 75.4409 10.5475C75.3936 10.6614 75.3692 10.7835 75.3692 10.9068V13.1938H75.3854C75.475 12.6616 76.0816 12.106 76.9658 12.106" fill="#EE0033"/>
<path d="M59.4869 42.283V32.7044C59.4869 31.3977 60.2894 30.7444 61.8943 30.7444H74.1648C75.9107 30.7444 77.2649 31.042 78.2275 31.6372C79.1901 32.2323 79.6718 33.2483 79.6728 34.6849V40.5092C79.6689 40.9846 79.4762 41.439 79.1369 41.7727C78.7976 42.1063 78.3395 42.292 77.8632 42.2889H76.5413V35.3593C76.5413 34.4611 76.3097 33.7936 75.8466 33.3567C75.3834 32.9199 74.6255 32.7024 73.5728 32.7044H71.1434V40.562C71.1399 41.0217 70.9537 41.4612 70.6257 41.7839C70.2976 42.1066 69.8547 42.2861 69.3941 42.283H68.0148V32.7044H63.4175C62.8828 32.7044 62.6155 32.9218 62.6155 33.3567V40.559C62.614 40.7871 62.5674 41.0126 62.4785 41.2227C62.3896 41.4328 62.26 41.6234 62.0973 41.7835C61.9346 41.9436 61.7418 42.0701 61.5301 42.1558C61.3183 42.2415 61.0917 42.2848 60.8632 42.283H59.4869Z" fill="black"/>
<path d="M97.5468 42.283V32.7044C97.5468 31.3977 98.3488 30.7444 99.9527 30.7444H104.925C106.671 30.7444 108.025 31.042 108.989 31.6372C109.952 32.2323 110.434 33.2483 110.433 34.6849V42.283H107.304V35.3593C107.304 34.4611 107.073 33.7936 106.609 33.3567C106.146 32.9199 105.389 32.7024 104.337 32.7044H101.477C100.941 32.7044 100.673 32.9218 100.674 33.3567V42.283H97.5468Z" fill="black"/>
<path d="M141.602 30.7444L133.155 46.0066H129.974L132.139 42.2405L125.83 30.7444H127.39C127.891 30.7426 128.382 30.8784 128.81 31.137C129.239 31.3956 129.587 31.767 129.818 32.2104L133.609 39.6018L137.713 32.0447C137.93 31.6487 138.25 31.3185 138.639 31.0889C139.029 30.8593 139.473 30.7387 139.925 30.74L141.602 30.7444Z" fill="black"/>
<path d="M96.1485 36.5789C96.1485 38.8149 95.5561 40.3606 94.3712 41.2157C93.1864 42.0709 91.2642 42.4989 88.6047 42.4999C85.949 42.4999 84.0288 42.0718 82.844 41.2157C81.6591 40.3596 81.0677 38.814 81.0696 36.5789C81.0696 34.3721 81.667 32.8406 82.8616 31.9845C84.0562 31.1284 85.9706 30.7003 88.6047 30.7003C91.2426 30.7003 93.159 31.1284 94.3536 31.9845C95.5482 32.8406 96.1451 34.3721 96.1441 36.5789H96.1485ZM84.301 36.5789C84.301 38.0155 84.6217 39.0348 85.2631 39.6369C85.9045 40.2389 87.0183 40.5404 88.6047 40.5414C90.191 40.5414 91.3048 40.2399 91.9462 39.6369C92.5876 39.0339 92.9088 38.0145 92.9097 36.5789C92.9097 35.1559 92.5886 34.1468 91.9462 33.5516C91.3038 32.9564 90.19 32.6589 88.6047 32.6589C87.0183 32.6589 85.9045 32.9564 85.2631 33.5516C84.6217 34.1468 84.301 35.1559 84.301 36.5789Z" fill="black"/>
<path d="M117.449 42.1892H124.444C124.566 42.1894 124.687 42.1655 124.8 42.119C124.913 42.0724 125.016 42.0041 125.102 41.9179C125.189 41.8317 125.257 41.7294 125.304 41.6167C125.351 41.504 125.375 41.3832 125.375 41.2613V40.2527H118.392C117.233 40.2527 115.913 40.1237 115.509 38.8966C115.383 38.3827 115.32 37.8556 115.319 37.3266H123.62C124.187 37.3266 124.726 37.2401 125.156 36.8956C125.744 36.4221 125.83 35.7551 125.83 35.1745C125.83 33.7335 125.479 32.313 123.809 31.473C122.487 30.8074 120.763 30.74 119.093 30.74C117.744 30.74 115.319 30.74 113.757 31.8145C112.194 32.8891 112.059 34.4621 112.059 36.5921C112.059 38.0977 112.139 39.6707 113.087 40.7452C114.272 42.0793 115.997 42.1863 117.452 42.1863L117.449 42.1892ZM115.322 35.3871C115.35 34.6336 115.322 34.0106 115.969 33.4286C116.832 32.6545 118.125 32.6765 118.961 32.6765C119.849 32.6765 120.87 32.719 121.656 33.1926C121.926 33.3484 122.152 33.5705 122.313 33.8378C122.473 34.105 122.562 34.4087 122.572 34.7201C122.572 35.0206 122.492 35.3871 121.872 35.3871H117.385C116.245 35.3871 115.319 35.9075 115.319 36.5496L115.322 35.3871Z" fill="black"/>
</g>
<g clip-path="url(#clip1)">
<path d="M28.0543 51.4555C41.0336 51.4555 51.5553 40.9542 51.5553 28.0001C51.5553 15.0459 41.0336 4.54456 28.0543 4.54456C15.0751 4.54456 4.55332 15.0459 4.55332 28.0001C4.55332 40.9542 15.0751 51.4555 28.0543 51.4555Z" fill="#EE0033"/>
<path d="M25.4925 13.3044H22.3159C21.5108 13.3044 20.7387 13.6236 20.1695 14.1918C19.6002 14.7599 19.2804 15.5305 19.2804 16.334V39.6721C19.2804 40.0699 19.3589 40.4639 19.5115 40.8314C19.664 41.199 19.8876 41.533 20.1695 41.8143C20.4514 42.0956 20.786 42.3188 21.1543 42.471C21.5225 42.6233 21.9172 42.7016 22.3159 42.7016H25.4925C25.5921 42.7016 25.6908 42.682 25.7829 42.644C25.8749 42.6059 25.9586 42.5501 26.0291 42.4798C26.0995 42.4094 26.1554 42.326 26.1936 42.2341C26.2317 42.1422 26.2513 42.0437 26.2513 41.9442V39.6779C26.2513 39.4771 26.1714 39.2844 26.0291 39.1424C25.8867 39.0003 25.6937 38.9205 25.4925 38.9205H20.5614V17.0811H25.4925C25.6935 17.0796 25.8856 16.9985 26.0268 16.8556C26.168 16.7128 26.2466 16.5199 26.2454 16.3193V14.0618C26.2454 13.862 26.1663 13.6702 26.0253 13.5283C25.8842 13.3865 25.6927 13.306 25.4925 13.3044Z" fill="white"/>
<path d="M33.7928 13.3044H30.6162C30.4152 13.3048 30.2226 13.3848 30.0806 13.5268C29.9386 13.6688 29.8588 13.8612 29.8588 14.0618V16.3193C29.8588 16.5199 29.9386 16.7124 30.0806 16.8544C30.2226 16.9963 30.4152 17.0763 30.6162 17.0767H35.5488V38.9235H30.6162C30.4152 38.9239 30.2226 39.0038 30.0806 39.1458C29.9386 39.2878 29.8588 39.4803 29.8588 39.6809V41.9428C29.8588 42.1434 29.9386 42.3358 30.0806 42.4778C30.2226 42.6198 30.4152 42.6998 30.6162 42.7001H33.7928C34.1922 42.7009 34.5878 42.623 34.9569 42.4709C35.3261 42.3189 35.6615 42.0956 35.944 41.8139C36.2266 41.5321 36.4506 41.1976 36.6033 40.8293C36.7561 40.461 36.8345 40.0663 36.8341 39.6677V16.334C36.8341 15.9357 36.7554 15.5412 36.6025 15.1733C36.4496 14.8053 36.2255 14.4711 35.943 14.1897C35.6605 13.9083 35.3252 13.6853 34.9562 13.5334C34.5873 13.3815 34.1919 13.3037 33.7928 13.3044V13.3044Z" fill="white"/>
</g>
<defs>
<clipPath id="clip0">
<rect width="82.1066" height="46.911" fill="white" transform="translate(59.4869 4.54456)"/>
</clipPath>
<clipPath id="clip1">
<rect width="47.002" height="46.911" fill="white" transform="translate(4.55332 4.54456)"/>
</clipPath>
</defs>
</svg>
